@@@@@@@@@@@@@@@@@@@@@@@@@@@@@@--www.tornster.com--@@@@@@@@@@@@@@@@@@@@@@@@@@@@@@
@                                                                              @
@ INFO:                                                                        @
@                                                                              @
@ General                                                                      @
@ Complete name                    : Blow Out                                  @
@ Genre                            : Crime / Drama / Mystery / Thriller        @
@ Format                           : AVI                                       @
@ Format/Info                      : Audio Video Interleave                    @
@ File size                        : 1.36 GiB                                  @
@ Duration                         : 1h 43mn                                   @
@ Overall bit rate                 : 1 891 Kbps                                @
@ Writing application              : VirtualDubMod 1.5.4.1 (build 2178/release)@
@ Writing library                  : VirtualDubMod build 2178/release          @
@                                                                              @
@ Video                                                                        @
@ Format                           : MPEG-4 Visual                             @
@ Format settings, BVOP            : Yes                                       @
@ Format settings, QPel            : No                                        @
@ Format settings, GMC             : No warppoints                             @
@ Format settings, Matrix          : Default                                   @
@ Codec ID                         : DX50                                      @
@ Codec ID/Hint                    : DivX 5                                    @
@ Duration                         : 1h 43mn                                   @
@ Bit rate                         : 1 691 Kbps                                @
@ Width                            : 720 pixels                                @
@ Height                           : 304 pixels                                @
@ Display aspect ratio             : 2.35                                      @
@ Frame rate                       : 25.000 fps                                @
@ Resolution                       : 24 bits                                   @
@ Colorimetry                      : 4:2:0                                     @
@ Scan type                        : Progressive                               @
@ Bits/(Pixel*Frame)               : 0.309                                     @
@ Stream size                      : 1.22 GiB (89%)                            @
@ Writing library                  : DivX 2816                                 @
@                                                                              @
@ Audio                                                                        @
@ Format                           : AC-3                                      @
@ Format/Info                      : Audio Coding 3                            @
@ Codec ID                         : 2000                                      @
@ Duration                         : 1h 43mn                                   @
@ Bit rate mode                    : Constant                                  @
@ Bit rate                         : 192 Kbps                                  @
@ Channel(s)                       : 2 channels                                @
@ Channel positions                : L R                                       @
@ Sampling rate                    : 48.0 KHz                                  @
@ Stream size                      : 142 MiB (10%)                             @
@ Alignment                        : Split accross interleaves                 @
@ Interleave, duration             : 80 ms (2.00 video frames)                 @
@ Interleave, preload duration     : 500 ms                                    @
@ Language                         : English                                   @
@ Subtitles                        : English German French Italian Spanish     @
@                                                                              @
@ IMDb Rating                      : 701/10                                    @
@ IMDb URL                         : http://www.imdb.com/title/tt0082085/      @
@                                                                              @
@°°°°°°°°°°°°°°°°°°°°°°°°°°°°°°°°°°°°°°°°°°°°°°°°°°°°°°°°°°°°°°°°°°°°°°°°°°°°°°@
@                                                                              @
@ Jack Terri is a talented audio technician you makes his living by recording  @
@ unique sounds for horror movies. But when he accidentally tapes an           @
@ automobile crash that kills a presidential candidate and injures his young   @
@ mistress, Sally, Jack is hurled into a mystery far more terrifying than any  @
@ of his films! Soon he and Sally must fight to stay alive as they uncover an  @
@ explosive political conspiracy that will send shockwaves to the highest      @
@ levels of government.                                                        @
@                                                                              @
@                                                                              @
@                                                                              @
@°°°°°°°°°°°°°°°°°°°°°°°°°°°°°°°°°°°°°°°°°°°°°°°°°°°°°°°°°°°°°°°°°°°°°°°°°°°°°°@
@                                                                              @
@ CAST:                                                                        @
@                                                                              @
@ John Travolta..............Jack                                              @
@ Nancy Allen................Sally                                             @
@ John Lithgow...............Burke                                             @
@ Dennis Franz...............Manny Karp                                        @
@ Peter Boyden...............Sam                                               @
@ Curt May...................Donahue                                           @
@ John Aquino................Detective Mackey                                  @  
@                                                                              @
@°°°°°°°°°°°°°°°°°°°°°°°°°°°°°°°°°°°°°°°°°°°°°°°°°°°°°°°°°°°°°°°°°°°°°°°°°°°°°°@
@                                                                              @
@ Trackers:                                                                    @
@                                                                              @
@ http://tracker.publicbt.com:80/announce                                      @
@                                                                              @
@ http://tracker.publicbt.com/announce                                         @
@                                                                              @
@ http://tracker.ilibr.org:6969/announce                                       @
@                                                                              @
@ http://torrent-download.to:5869/announce                                     @
@                                                                              @
@ http://torrent-download.to:5869/announce.php                                 @
@                                                                              @
@ http://denis.stalker.h3q.com:6969/announce                                   @
@                                                                              @
@                                 @
@                                                                              @
@                                                                              @
@°°°°°°°°°°°°°°°°°°°°°°°°°°°°°°°°°°°°°°°°°°°°°°°°°°°°°°°°°°°°°°°°°°°°°°°°°°°°°°@
@                                                                              @
@                            Please remember to seed                           @
@                                                                              @
@                              Standalone Enabled                              @
@                                                                              @
@                               www.tornster.com                               @
@                                                                              @
@@@@@@@@@@@@@@@@@@@@@@@@@@@@@@@@@@@@@@@@@@@@@@@@@@@@@@@@@@@@@@@@@@@@@@@@@@@@@@@@